<?xml version="1.0" standalone="no"?>
<!DOCTYPE svg PUBLIC "-//W3C//DTD SVG 20010904//EN"
 "http://www.w3.org/TR/2001/REC-SVG-20010904/DTD/svg10.dtd">
<svg version="1.0" xmlns="http://www.w3.org/2000/svg"
 width="513.000000pt" height="513.000000pt" viewBox="0 0 513.000000 513.000000"
 preserveAspectRatio="xMidYMid meet">
<metadata>
Created by potrace 1.14, written by Peter Selinger 2001-2017
</metadata>
<g transform="translate(0.000000,513.000000) scale(0.100000,-0.100000)"
fill="#000000" stroke="none">
<path d="M2806 5114 c-400 -71 -728 -352 -859 -734 -134 -392 -27 -842 269
-1132 219 -214 480 -321 783 -319 345 1 662 162 877 446 66 88 150 264 180
380 23 86 27 122 28 255 1 135 -3 187 -17 250 -67 286 -227 521 -462 680 -74
50 -213 120 -238 120 -7 0 -17 4 -23 9 -8 7 -70 25 -129 37 -11 2 -31 6 -45
10 -57 12 -288 11 -364 -2z m409 -214 c44 -11 122 -41 172 -66 377 -186 571
-595 479 -1009 -36 -164 -132 -330 -259 -450 -352 -332 -900 -328 -1242 10
-193 190 -284 420 -272 685 20 422 323 768 742 845 98 18 280 11 380 -15z"/>
<path d="M2907 4700 c-30 -26 -32 -33 -35 -108 -4 -78 -5 -81 -34 -93 -44 -18
-111 -88 -138 -144 -49 -101 -30 -234 44 -321 37 -43 115 -90 161 -98 17 -2
49 -7 72 -11 45 -7 93 -50 93 -84 0 -38 -23 -82 -51 -96 -56 -29 -95 -18 -166
46 -49 45 -83 56 -122 39 -104 -43 -81 -151 49 -238 34 -23 69 -42 76 -42 11
0 14 -17 14 -71 0 -102 31 -149 100 -149 68 0 100 47 100 147 0 67 1 68 32 82
49 22 107 80 136 135 36 70 38 188 4 258 -46 98 -142 164 -250 174 -107 9
-156 95 -94 165 19 21 38 32 62 34 36 3 97 -22 119 -49 7 -9 29 -18 49 -22 79
-15 144 65 108 135 -20 37 -70 79 -123 103 l-43 19 0 74 c0 67 -3 78 -28 106
-39 44 -92 48 -135 9z"/>
<path d="M4599 2977 c-30 -12 -71 -32 -90 -44 -28 -18 -247 -239 -602 -607
l-67 -68 -46 41 c-50 44 -130 86 -185 97 -19 4 -297 8 -619 8 -568 2 -587 3
-645 23 -237 84 -488 100 -737 47 -331 -69 -602 -254 -784 -534 l-49 -75 -66
-1 c-111 -2 -132 -17 -431 -317 -178 -178 -268 -275 -269 -290 -2 -37 3 -61
16 -79 22 -33 1129 -1144 1156 -1162 16 -10 38 -15 55 -12 16 2 32 5 35 5 23
3 537 519 565 567 29 50 43 133 31 197 l-8 48 63 60 c69 65 133 103 192 114
21 4 371 9 779 10 720 2 744 3 819 23 110 30 206 72 285 125 107 73 117 84
386 407 34 42 70 84 114 136 23 27 94 112 158 189 65 77 136 163 160 190 304
358 305 360 305 530 0 104 -2 116 -30 172 -39 79 -106 145 -187 185 -57 28
-77 32 -157 34 -74 2 -101 -1 -147 -19z m219 -196 c70 -36 112 -102 112 -176
0 -73 -17 -102 -152 -260 -9 -11 -45 -54 -79 -95 -34 -41 -73 -88 -88 -105
-14 -16 -127 -151 -251 -300 -123 -148 -229 -275 -235 -281 -5 -6 -30 -36 -54
-65 -123 -149 -226 -222 -376 -268 l-80 -24 -735 -2 c-404 -1 -757 -5 -783 -9
-106 -15 -198 -64 -303 -160 l-59 -54 -195 195 c-107 107 -284 283 -392 392
l-197 197 51 80 c54 83 177 212 251 263 105 72 280 148 382 166 17 2 39 7 50
9 189 38 424 18 608 -50 l72 -27 605 -1 606 -2 44 -26 c91 -53 120 -123 96
-237 -8 -37 -54 -89 -99 -113 -41 -21 -50 -22 -488 -23 -487 -1 -477 0 -508
-59 -20 -36 -5 -93 32 -120 28 -21 38 -21 455 -22 234 0 450 3 480 7 134 18
266 126 311 252 12 36 24 95 25 131 l3 67 270 277 c149 152 304 312 344 354
41 42 90 84 109 92 49 21 123 20 168 -3z m-4032 -1140 c21 -16 229 -220 462
-453 l422 -424 0 -44 0 -44 -219 -217 -219 -218 -492 495 -493 495 179 181
c203 205 240 240 263 250 32 13 59 8 97 -21z"/>
<path d="M2243 1808 c-30 -15 -56 -72 -48 -107 8 -39 47 -73 87 -76 93 -8 143
98 77 164 -33 33 -73 40 -116 19z"/>
</g>
</svg>
